<svg width="115" height="23" viewBox="0 0 115 23" fill="none" xmlns="http://www.w3.org/2000/svg">
<path d="M10.5008 2.22632C10.8878 1.36395 12.1122 1.36395 12.4992 2.22632L14.4334 6.53574C14.5926 6.89059 14.9281 7.13435 15.3148 7.17617L20.011 7.68397C20.9508 7.78558 21.3291 8.95 20.6286 9.58458L17.1278 12.7558C16.8395 13.0169 16.7113 13.4113 16.7911 13.792L17.7593 18.4152C17.9531 19.3404 16.9626 20.0601 16.1426 19.5899L12.0448 17.2404C11.7074 17.0469 11.2926 17.0469 10.9552 17.2404L6.85745 19.5899C6.03743 20.0601 5.04693 19.3404 5.24069 18.4152L6.20894 13.792C6.28867 13.4113 6.16052 13.0169 5.87225 12.7558L2.37143 9.58458C1.67088 8.95 2.04922 7.78558 2.98898 7.68397L7.68517 7.17617C8.07186 7.13435 8.40738 6.89059 8.56664 6.53574L10.5008 2.22632Z" fill="#FFC369"/>
<path d="M33.5008 2.22632C33.8878 1.36395 35.1122 1.36395 35.4992 2.22632L37.4334 6.53574C37.5926 6.89059 37.9281 7.13435 38.3148 7.17617L43.011 7.68397C43.9508 7.78558 44.3291 8.95 43.6286 9.58458L40.1278 12.7558C39.8395 13.0169 39.7113 13.4113 39.7911 13.792L40.7593 18.4152C40.9531 19.3404 39.9626 20.0601 39.1426 19.5899L35.0448 17.2404C34.7074 17.0469 34.2926 17.0469 33.9552 17.2404L29.8574 19.5899C29.0374 20.0601 28.0469 19.3404 28.2407 18.4152L29.2089 13.792C29.2887 13.4113 29.1605 13.0169 28.8722 12.7558L25.3714 9.58458C24.6709 8.95 25.0492 7.78558 25.989 7.68397L30.6852 7.17617C31.0719 7.13435 31.4074 6.89059 31.5666 6.53574L33.5008 2.22632Z" fill="#FFC369"/>
<path d="M56.5008 2.22632C56.8878 1.36395 58.1122 1.36395 58.4992 2.22632L60.4334 6.53574C60.5926 6.89059 60.9281 7.13435 61.3148 7.17617L66.011 7.68397C66.9508 7.78558 67.3291 8.95 66.6286 9.58458L63.1278 12.7558C62.8395 13.0169 62.7113 13.4113 62.7911 13.792L63.7593 18.4152C63.9531 19.3404 62.9626 20.0601 62.1426 19.5899L58.0448 17.2404C57.7074 17.0469 57.2926 17.0469 56.9552 17.2404L52.8574 19.5899C52.0374 20.0601 51.0469 19.3404 51.2407 18.4152L52.2089 13.792C52.2887 13.4113 52.1605 13.0169 51.8722 12.7558L48.3714 9.58458C47.6709 8.95 48.0492 7.78558 48.989 7.68397L53.6852 7.17617C54.0719 7.13435 54.4074 6.89059 54.5666 6.53574L56.5008 2.22632Z" fill="#FFC369"/>
<path d="M79.5008 2.22632C79.8878 1.36395 81.1122 1.36395 81.4992 2.22632L83.4334 6.53574C83.5926 6.89059 83.9281 7.13435 84.3148 7.17617L89.011 7.68397C89.9508 7.78558 90.3291 8.95 89.6286 9.58458L86.1278 12.7558C85.8395 13.0169 85.7113 13.4113 85.7911 13.792L86.7593 18.4152C86.9531 19.3404 85.9626 20.0601 85.1426 19.5899L81.0448 17.2404C80.7074 17.0469 80.2926 17.0469 79.9552 17.2404L75.8574 19.5899C75.0374 20.0601 74.0469 19.3404 74.2407 18.4152L75.2089 13.792C75.2887 13.4113 75.1605 13.0169 74.8722 12.7558L71.3714 9.58458C70.6709 8.95 71.0492 7.78558 71.989 7.68397L76.6852 7.17617C77.0719 7.13435 77.4074 6.89059 77.5666 6.53574L79.5008 2.22632Z" fill="#FFC369"/>
<path d="M102.501 2.22632C102.888 1.36395 104.112 1.36395 104.499 2.22632L106.433 6.53574C106.593 6.89059 106.928 7.13435 107.315 7.17617L112.011 7.68397C112.951 7.78558 113.329 8.95 112.629 9.58458L109.128 12.7558C108.839 13.0169 108.711 13.4113 108.791 13.792L109.759 18.4152C109.953 19.3404 108.963 20.0601 108.143 19.5899L104.045 17.2404C103.707 17.0469 103.293 17.0469 102.955 17.2404L98.8574 19.5899C98.0374 20.0601 97.0469 19.3404 97.2407 18.4152L98.2089 13.792C98.2887 13.4113 98.1605 13.0169 97.8722 12.7558L94.3714 9.58458C93.6709 8.95 94.0492 7.78558 94.989 7.68397L99.6852 7.17617C100.072 7.13435 100.407 6.89059 100.567 6.53574L102.501 2.22632Z" fill="#FFC369"/>
</svg>
